<svg width="32" height="32" viewBox="0 0 32 32" fill="none" xmlns="http://www.w3.org/2000/svg">
<path d="M5.11102 20.3313L5.84207 20.1638L5.11102 20.3313ZM5.11102 12.471L5.84207 12.6385L5.11102 12.471ZM26.889 12.471L26.1579 12.6385L26.889 12.471ZM26.889 20.3313L26.1579 20.1638L26.889 20.3313ZM19.8402 27.5452L20.0153 28.2745L19.8402 27.5452ZM12.1598 27.5452L12.3349 26.8159L12.1598 27.5452ZM12.1598 5.25706L12.3349 5.98634L12.1598 5.25706ZM19.8402 5.25706L20.0153 4.52778L19.8402 5.25706ZM11.5101 4C11.5101 3.58579 11.1743 3.25 10.7601 3.25C10.3459 3.25 10.0101 3.58579 10.0101 4H11.5101ZM10.0101 7.35166C10.0101 7.76587 10.3459 8.10166 10.7601 8.10166C11.1743 8.10166 11.5101 7.76587 11.5101 7.35166H10.0101ZM21.9899 4C21.9899 3.58579 21.6541 3.25 21.2399 3.25C20.8257 3.25 20.4899 3.58579 20.4899 4H21.9899ZM20.4899 7.35166C20.4899 7.76587 20.8257 8.10166 21.2399 8.10166C21.6541 8.10166 21.9899 7.76587 21.9899 7.35166H20.4899ZM5.84207 20.1638C5.27485 17.689 5.27485 15.1133 5.84207 12.6385L4.37998 12.3034C3.76222 14.9987 3.76222 17.8036 4.37998 20.4989L5.84207 20.1638ZM26.1579 12.6385C26.7251 15.1133 26.7251 17.689 26.1579 20.1638L27.62 20.4989C28.2378 17.8036 28.2378 14.9987 27.62 12.3034L26.1579 12.6385ZM19.6651 26.816C17.2543 27.3947 14.7456 27.3947 12.3349 26.8159L11.9847 28.2745C14.6257 28.9085 17.3743 28.9085 20.0153 28.2745L19.6651 26.816ZM12.3349 5.98634C14.7456 5.4076 17.2543 5.4076 19.6651 5.98634L20.0153 4.52778C17.3743 3.89379 14.6257 3.89379 11.9847 4.52778L12.3349 5.98634ZM12.3349 26.8159C9.12164 26.0446 6.60054 23.473 5.84207 20.1638L4.37998 20.4989C5.26231 24.3485 8.20296 27.3666 11.9847 28.2745L12.3349 26.8159ZM20.0153 28.2745C23.797 27.3666 26.7377 24.3485 27.62 20.4989L26.1579 20.1638C25.3994 23.473 22.8783 26.0446 19.6651 26.816L20.0153 28.2745ZM19.6651 5.98634C22.8783 6.75772 25.3994 9.3293 26.1579 12.6385L27.62 12.3034C26.7377 8.45378 23.797 5.43564 20.0153 4.52778L19.6651 5.98634ZM11.9847 4.52778C8.20296 5.43564 5.26231 8.45377 4.37998 12.3034L5.84207 12.6385C6.60054 9.3293 9.12164 6.75772 12.3349 5.98634L11.9847 4.52778ZM5.5202 11.7885H26.4798V10.2885H5.5202V11.7885ZM10.0101 4V7.35166H11.5101V4H10.0101ZM20.4899 4V7.35166H21.9899V4H20.4899Z" fill="#140A01"/>
<rect x="11.25" y="15.25" width="2.83333" height="2.83333" rx="1" stroke="#140A01" stroke-width="1.5"/>
<rect x="17.9167" y="15.25" width="2.83333" height="2.83333" rx="1" stroke="#140A01" stroke-width="1.5"/>
<rect x="11.25" y="20.5833" width="2.83333" height="2.83333" rx="1" stroke="#140A01" stroke-width="1.5"/>
<rect x="17.9167" y="20.5833" width="2.83333" height="2.83333" rx="1" stroke="#140A01" stroke-width="1.5"/>
</svg>
