<svg width="32" height="32" viewBox="0 0 32 32" fill="none" xmlns="http://www.w3.org/2000/svg">
<path d="M19.3333 16L19.8637 16.5303C20.0043 16.3896 20.0833 16.1989 20.0833 16C20.0833 15.801 20.0043 15.6103 19.8637 15.4696L19.3333 16ZM13.197 8.80296C12.9041 8.51007 12.4292 8.51007 12.1363 8.80296C11.8434 9.09586 11.8434 9.57073 12.1363 9.86362L13.197 8.80296ZM12.1363 22.1363C11.8434 22.4292 11.8434 22.9041 12.1363 23.197C12.4292 23.4898 12.9041 23.4898 13.197 23.197L12.1363 22.1363ZM19.8637 15.4696L13.197 8.80296L12.1363 9.86362L18.803 16.5303L19.8637 15.4696ZM18.803 15.4696L12.1363 22.1363L13.197 23.197L19.8637 16.5303L18.803 15.4696Z" fill="#35291B"/>
</svg>
