<svg width="32" height="32" viewBox="0 0 32 32" fill="none" xmlns="http://www.w3.org/2000/svg">
<path d="M4.4705 20.0661L5.20068 19.8948L4.4705 20.0661ZM4.4705 11.9339L3.74032 11.7626L4.4705 11.9339ZM27.5295 11.9339L28.2597 11.7626L27.5295 11.9339ZM27.5295 20.0661L28.2597 20.2374L27.5295 20.0661ZM20.0661 27.5295L20.2374 28.2597L20.0661 27.5295ZM11.9339 27.5295L12.1052 26.7993L11.9339 27.5295ZM11.9339 4.4705L11.7626 3.74032L11.9339 4.4705ZM20.0661 4.4705L20.2374 3.74032L20.0661 4.4705ZM5.20068 19.8948C4.59977 17.333 4.59977 14.667 5.20068 12.1052L3.74032 11.7626C3.08656 14.5497 3.08656 17.4503 3.74032 20.2374L5.20068 19.8948ZM26.7993 12.1052C27.4002 14.667 27.4002 17.333 26.7993 19.8948L28.2597 20.2374C28.9134 17.4503 28.9134 14.5497 28.2597 11.7626L26.7993 12.1052ZM19.8948 26.7993C17.333 27.4002 14.667 27.4002 12.1052 26.7993L11.7626 28.2597C14.5497 28.9134 17.4503 28.9134 20.2374 28.2597L19.8948 26.7993ZM12.1052 5.20068C14.667 4.59977 17.333 4.59977 19.8948 5.20068L20.2374 3.74032C17.4503 3.08656 14.5497 3.08656 11.7626 3.74032L12.1052 5.20068ZM12.1052 26.7993C8.67928 25.9957 6.0043 23.3207 5.20068 19.8948L3.74032 20.2374C4.67403 24.2179 7.78209 27.326 11.7626 28.2597L12.1052 26.7993ZM20.2374 28.2597C24.2179 27.326 27.326 24.2179 28.2597 20.2374L26.7993 19.8948C25.9957 23.3207 23.3207 25.9957 19.8948 26.7993L20.2374 28.2597ZM19.8948 5.20068C23.3207 6.00429 25.9957 8.67928 26.7993 12.1052L28.2597 11.7626C27.326 7.78208 24.2179 4.67403 20.2374 3.74032L19.8948 5.20068ZM11.7626 3.74032C7.78208 4.67403 4.67403 7.78208 3.74032 11.7626L5.20068 12.1052C6.0043 8.67927 8.67928 6.00429 12.1052 5.20068L11.7626 3.74032Z" fill="#35291B"/>
<path d="M14 16L13.4697 15.4696C13.329 15.6103 13.25 15.801 13.25 16C13.25 16.1989 13.329 16.3896 13.4697 16.5303L14 16ZM16.803 19.8636C17.0959 20.1565 17.5708 20.1565 17.8637 19.8636C18.1566 19.5707 18.1566 19.0959 17.8637 18.803L16.803 19.8636ZM17.8637 13.197C18.1566 12.9041 18.1566 12.4292 17.8637 12.1363C17.5708 11.8434 17.0959 11.8434 16.803 12.1363L17.8637 13.197ZM13.4697 16.5303L16.803 19.8636L17.8637 18.803L14.5303 15.4696L13.4697 16.5303ZM14.5303 16.5303L17.8637 13.197L16.803 12.1363L13.4697 15.4696L14.5303 16.5303Z" fill="#35291B"/>
</svg>
