<svg width="32" height="32" viewBox="0 0 32 32" fill="none" xmlns="http://www.w3.org/2000/svg">
<path fill-rule="evenodd" clip-rule="evenodd" d="M12.0397 4.45827C14.6445 3.84725 17.3555 3.84724 19.9603 4.45826C23.7221 5.34066 26.6593 8.27789 27.5417 12.0397C28.1528 14.6445 28.1528 17.3555 27.5417 19.9603C26.6593 23.7221 23.7221 26.6593 19.9603 27.5417C17.3555 28.1528 14.6445 28.1528 12.0397 27.5417C8.27789 26.6593 5.34066 23.7221 4.45827 19.9603C3.84724 17.3555 3.84724 14.6445 4.45827 12.0397C5.34066 8.27788 8.27789 5.34066 12.0397 4.45827ZM14.2852 13.2021C13.9861 12.903 13.5012 12.903 13.2021 13.2021C12.903 13.5012 12.903 13.9861 13.2021 14.2851L14.9169 16L13.2021 17.7148C12.903 18.0139 12.903 18.4988 13.2021 18.7978C13.5012 19.0969 13.9861 19.0969 14.2852 18.7978L16 17.083L17.7148 18.7978C18.0139 19.0969 18.4988 19.0969 18.7978 18.7978C19.0969 18.4988 19.0969 18.0139 18.7978 17.7148L17.083 16L18.7978 14.2851C19.0969 13.9861 19.0969 13.5012 18.7978 13.2021C18.4988 12.903 18.0139 12.903 17.7148 13.2021L16 14.9169L14.2852 13.2021Z" fill="#140A01"/>
</svg>
