<svg width="32" height="32" viewBox="0 0 32 32" fill="none" xmlns="http://www.w3.org/2000/svg">
<path d="M4.4705 20.0661L5.20068 19.8948L4.4705 20.0661ZM4.4705 11.9339L5.20068 12.1052L4.4705 11.9339ZM27.5295 11.9339L26.7993 12.1052L27.5295 11.9339ZM27.5295 20.0661L26.7993 19.8948L27.5295 20.0661ZM20.0661 27.5295L20.2374 28.2597L20.0661 27.5295ZM11.9339 27.5295L12.1052 26.7993L11.9339 27.5295ZM11.9339 4.4705L12.1052 5.20068L11.9339 4.4705ZM20.0661 4.4705L20.2374 3.74032L20.0661 4.4705ZM5.20068 19.8948C4.59977 17.333 4.59977 14.667 5.20068 12.1052L3.74032 11.7626C3.08656 14.5497 3.08656 17.4503 3.74032 20.2374L5.20068 19.8948ZM26.7993 12.1052C27.4002 14.667 27.4002 17.333 26.7993 19.8948L28.2597 20.2374C28.9134 17.4503 28.9134 14.5497 28.2597 11.7626L26.7993 12.1052ZM19.8948 26.7993C17.333 27.4002 14.667 27.4002 12.1052 26.7993L11.7626 28.2597C14.5497 28.9134 17.4503 28.9134 20.2374 28.2597L19.8948 26.7993ZM12.1052 5.20068C14.667 4.59977 17.333 4.59977 19.8948 5.20068L20.2374 3.74032C17.4503 3.08656 14.5497 3.08656 11.7626 3.74032L12.1052 5.20068ZM12.1052 26.7993C8.67928 25.9957 6.0043 23.3207 5.20068 19.8948L3.74032 20.2374C4.67403 24.2179 7.78209 27.326 11.7626 28.2597L12.1052 26.7993ZM20.2374 28.2597C24.2179 27.326 27.326 24.2179 28.2597 20.2374L26.7993 19.8948C25.9957 23.3207 23.3207 25.9957 19.8948 26.7993L20.2374 28.2597ZM19.8948 5.20068C23.3207 6.00429 25.9957 8.67928 26.7993 12.1052L28.2597 11.7626C27.326 7.78208 24.2179 4.67403 20.2374 3.74032L19.8948 5.20068ZM11.7626 3.74032C7.78208 4.67403 4.67403 7.78208 3.74032 11.7626L5.20068 12.1052C6.0043 8.67927 8.67928 6.00429 12.1052 5.20068L11.7626 3.74032Z" fill="#140A01"/>
<path d="M18.9307 19.9661C19.2802 20.1885 19.7437 20.0854 19.9661 19.7359C20.1884 19.3865 20.0854 18.9229 19.7359 18.7006L18.9307 19.9661ZM15.5485 16.9252H14.7985C14.7985 17.1816 14.9295 17.4203 15.1459 17.558L15.5485 16.9252ZM16.2985 12C16.2985 11.5858 15.9627 11.25 15.5485 11.25C15.1343 11.25 14.7985 11.5858 14.7985 12H16.2985ZM19.7359 18.7006L15.9511 16.2924L15.1459 17.558L18.9307 19.9661L19.7359 18.7006ZM16.2985 16.9252V12H14.7985V16.9252H16.2985Z" fill="#140A01"/>
</svg>
