<svg width="32" height="32" viewBox="0 0 32 32" fill="none" xmlns="http://www.w3.org/2000/svg">
<path d="M16.0001 29V11" stroke="#A2CD7C" stroke-width="2" stroke-linecap="round" stroke-linejoin="round"/>
<path d="M16.0002 19L10.0002 16" stroke="#A2CD7C" stroke-width="2" stroke-linecap="round" stroke-linejoin="round"/>
<path d="M16.0001 16L22.0001 13" stroke="#A2CD7C" stroke-width="2" stroke-linecap="round" stroke-linejoin="round"/>
<path d="M16.5624 22.6498C17.4799 23.2747 18.5174 23.7018 19.6089 23.904C20.7004 24.1061 21.822 24.0789 22.9024 23.8241C23.9828 23.5693 24.9984 23.0924 25.8845 22.4238C26.7706 21.7552 27.5079 20.9095 28.0494 19.9405C28.5909 18.9715 28.9249 17.9004 29.03 16.7953C29.1351 15.6902 29.0091 14.5754 28.6599 13.5216C28.3108 12.4679 27.7462 11.4984 27.002 10.6747C26.2579 9.85102 25.3504 9.19122 24.3374 8.73727C24.115 8.62545 23.9383 8.43989 23.8374 8.21227C23.1894 6.66848 22.0999 5.35045 20.7056 4.42356C19.3112 3.49666 17.6742 3.0022 15.9999 3.0022C14.3256 3.0022 12.6886 3.49666 11.2943 4.42356C9.9 5.35045 8.81047 6.66848 8.16244 8.21227C8.06159 8.43989 7.88487 8.62545 7.66244 8.73727C6.64944 9.19122 5.742 9.85102 4.99784 10.6747C4.25367 11.4984 3.68907 12.4679 3.33994 13.5216C2.99081 14.5754 2.86479 15.6902 2.96991 16.7953C3.07502 17.9004 3.40896 18.9715 3.95049 19.9405C4.49202 20.9095 5.22929 21.7552 6.1154 22.4238C7.00151 23.0924 8.01706 23.5693 9.09748 23.8241C10.1779 24.0789 11.2995 24.1061 12.391 23.904C13.4825 23.7018 14.52 23.2747 15.4374 22.6498C15.6045 22.5401 15.8001 22.4816 15.9999 22.4816C16.1998 22.4816 16.3953 22.5401 16.5624 22.6498Z" stroke="#A2CD7C" stroke-width="2" stroke-linecap="round" stroke-linejoin="round"/>
</svg>
