<svg width="32" height="32" viewBox="0 0 32 32" fill="none" xmlns="http://www.w3.org/2000/svg">
<path d="M21.7369 20.4486H8.90663V26.9091C8.90663 27.5116 8.40519 28 7.78663 28C7.16807 28 6.66663 27.5116 6.66663 26.9091V5.09091C6.66663 4.48842 7.16807 4 7.78663 4H21.7369C23.2049 4 24.3341 4.87901 24.8985 5.97609C25.4619 7.07112 25.5218 8.47575 24.8164 9.70695L24.1461 10.8767C23.6759 11.6975 23.6759 12.7511 24.1461 13.5719L24.8164 14.7417C25.5218 15.9729 25.4619 17.3775 24.8985 18.4725C24.3341 19.5696 23.2049 20.4486 21.7369 20.4486Z" fill="#140A01"/>
</svg>
