<svg width="52" height="52" viewBox="0 0 52 52" fill="none" xmlns="http://www.w3.org/2000/svg">
<path fill-rule="evenodd" clip-rule="evenodd" d="M8.125 20C8.125 16.203 11.203 13.125 15 13.125H45C48.797 13.125 51.875 16.203 51.875 20V50C51.875 53.797 48.797 56.875 45 56.875H15C11.203 56.875 8.125 53.797 8.125 50V20ZM15 16.875C13.2741 16.875 11.875 18.2741 11.875 20V50C11.875 51.7259 13.2741 53.125 15 53.125H45C46.7259 53.125 48.125 51.7259 48.125 50V20C48.125 18.2741 46.7259 16.875 45 16.875H15Z" fill="#35291B"/>
<path fill-rule="evenodd" clip-rule="evenodd" d="M13.125 35C13.125 31.203 16.203 28.125 20 28.125H40C43.797 28.125 46.875 31.203 46.875 35V45C46.875 48.797 43.797 51.875 40 51.875H20C16.203 51.875 13.125 48.797 13.125 45V35ZM20 31.875C18.2741 31.875 16.875 33.2741 16.875 35V45C16.875 46.7259 18.2741 48.125 20 48.125H40C41.7259 48.125 43.125 46.7259 43.125 45V35C43.125 33.2741 41.7259 31.875 40 31.875H20Z" fill="#35291B"/>
<path fill-rule="evenodd" clip-rule="evenodd" d="M17.5 21.25C17.5 20.5596 18.0596 20 18.75 20H41.25C41.9404 20 42.5 20.5596 42.5 21.25C42.5 21.9404 41.9404 22.5 41.25 22.5H18.75C18.0596 22.5 17.5 21.9404 17.5 21.25Z" fill="#35291B"/>
<path d="M30 42.5C30 45.2614 27.7614 47.5 25 47.5C22.2386 47.5 20 45.2614 20 42.5C20 39.7386 22.2386 37.5 25 37.5C27.7614 37.5 30 39.7386 30 42.5Z" fill="#CFBBAF"/>
<path fill-rule="evenodd" clip-rule="evenodd" d="M25 38.75C22.9289 38.75 21.25 40.4289 21.25 42.5C21.25 44.5711 22.9289 46.25 25 46.25C27.0711 46.25 28.75 44.5711 28.75 42.5C28.75 40.4289 27.0711 38.75 25 38.75ZM18.75 42.5C18.75 39.0482 21.5482 36.25 25 36.25C28.4518 36.25 31.25 39.0482 31.25 42.5C31.25 45.9518 28.4518 48.75 25 48.75C21.5482 48.75 18.75 45.9518 18.75 42.5Z" fill="#35291B"/>
<path d="M35 42.5C35 45.2614 32.7614 47.5 30 47.5C27.2386 47.5 25 45.2614 25 42.5C25 39.7386 27.2386 37.5 30 37.5C32.7614 37.5 35 39.7386 35 42.5Z" fill="#CFBBAF"/>
<path fill-rule="evenodd" clip-rule="evenodd" d="M30 38.75C27.9289 38.75 26.25 40.4289 26.25 42.5C26.25 44.5711 27.9289 46.25 30 46.25C32.0711 46.25 33.75 44.5711 33.75 42.5C33.75 40.4289 32.0711 38.75 30 38.75ZM23.75 42.5C23.75 39.0482 26.5482 36.25 30 36.25C33.4518 36.25 36.25 39.0482 36.25 42.5C36.25 45.9518 33.4518 48.75 30 48.75C26.5482 48.75 23.75 45.9518 23.75 42.5Z" fill="#35291B"/>
<path d="M40 42.5C40 45.2614 37.7614 47.5 35 47.5C32.2386 47.5 30 45.2614 30 42.5C30 39.7386 32.2386 37.5 35 37.5C37.7614 37.5 40 39.7386 40 42.5Z" fill="#CFBBAF"/>
<path fill-rule="evenodd" clip-rule="evenodd" d="M35 38.75C32.9289 38.75 31.25 40.4289 31.25 42.5C31.25 44.5711 32.9289 46.25 35 46.25C37.0711 46.25 38.75 44.5711 38.75 42.5C38.75 40.4289 37.0711 38.75 35 38.75ZM28.75 42.5C28.75 39.0482 31.5482 36.25 35 36.25C38.4518 36.25 41.25 39.0482 41.25 42.5C41.25 45.9518 38.4518 48.75 35 48.75C31.5482 48.75 28.75 45.9518 28.75 42.5Z" fill="#35291B"/>
</svg>
