<svg width="32" height="32" viewBox="0 0 32 32" fill="none" xmlns="http://www.w3.org/2000/svg">
<path fill-rule="evenodd" clip-rule="evenodd" d="M4.33334 10.6667C4.33334 8.64162 5.97497 7 8.00001 7H24C26.0251 7 27.6667 8.64162 27.6667 10.6667V26.6667C27.6667 28.6917 26.0251 30.3333 24 30.3333H8.00001C5.97497 30.3333 4.33334 28.6917 4.33334 26.6667V10.6667ZM8.00001 9C7.07954 9 6.33334 9.74619 6.33334 10.6667V26.6667C6.33334 27.5871 7.07954 28.3333 8.00001 28.3333H24C24.9205 28.3333 25.6667 27.5871 25.6667 26.6667V10.6667C25.6667 9.74619 24.9205 9 24 9H8.00001Z" fill="#35291B"/>
<path fill-rule="evenodd" clip-rule="evenodd" d="M7.00001 18.6667C7.00001 16.6416 8.64163 15 10.6667 15H21.3333C23.3584 15 25 16.6416 25 18.6667V24C25 26.025 23.3584 27.6667 21.3333 27.6667H10.6667C8.64163 27.6667 7.00001 26.025 7.00001 24V18.6667ZM10.6667 17C9.7462 17 9.00001 17.7462 9.00001 18.6667V24C9.00001 24.9205 9.7462 25.6667 10.6667 25.6667H21.3333C22.2538 25.6667 23 24.9205 23 24V18.6667C23 17.7462 22.2538 17 21.3333 17H10.6667Z" fill="#35291B"/>
<path fill-rule="evenodd" clip-rule="evenodd" d="M9.33334 11.3333C9.33334 10.9651 9.63182 10.6667 10 10.6667H22C22.3682 10.6667 22.6667 10.9651 22.6667 11.3333C22.6667 11.7015 22.3682 12 22 12H10C9.63182 12 9.33334 11.7015 9.33334 11.3333Z" fill="#35291B"/>
<path d="M16 22.6667C16 24.1394 14.8061 25.3333 13.3333 25.3333C11.8606 25.3333 10.6667 24.1394 10.6667 22.6667C10.6667 21.1939 11.8606 20 13.3333 20C14.8061 20 16 21.1939 16 22.6667Z" fill="#CFBBAF"/>
<path fill-rule="evenodd" clip-rule="evenodd" d="M13.3333 20.6667C12.2288 20.6667 11.3333 21.5621 11.3333 22.6667C11.3333 23.7712 12.2288 24.6667 13.3333 24.6667C14.4379 24.6667 15.3333 23.7712 15.3333 22.6667C15.3333 21.5621 14.4379 20.6667 13.3333 20.6667ZM10 22.6667C10 20.8257 11.4924 19.3333 13.3333 19.3333C15.1743 19.3333 16.6667 20.8257 16.6667 22.6667C16.6667 24.5076 15.1743 26 13.3333 26C11.4924 26 10 24.5076 10 22.6667Z" fill="#35291B"/>
<path d="M18.6667 22.6667C18.6667 24.1394 17.4728 25.3333 16 25.3333C14.5273 25.3333 13.3333 24.1394 13.3333 22.6667C13.3333 21.1939 14.5273 20 16 20C17.4728 20 18.6667 21.1939 18.6667 22.6667Z" fill="#CFBBAF"/>
<path fill-rule="evenodd" clip-rule="evenodd" d="M16 20.6667C14.8954 20.6667 14 21.5621 14 22.6667C14 23.7712 14.8954 24.6667 16 24.6667C17.1046 24.6667 18 23.7712 18 22.6667C18 21.5621 17.1046 20.6667 16 20.6667ZM12.6667 22.6667C12.6667 20.8257 14.1591 19.3333 16 19.3333C17.841 19.3333 19.3333 20.8257 19.3333 22.6667C19.3333 24.5076 17.841 26 16 26C14.1591 26 12.6667 24.5076 12.6667 22.6667Z" fill="#35291B"/>
<path d="M21.3333 22.6667C21.3333 24.1394 20.1394 25.3333 18.6667 25.3333C17.1939 25.3333 16 24.1394 16 22.6667C16 21.1939 17.1939 20 18.6667 20C20.1394 20 21.3333 21.1939 21.3333 22.6667Z" fill="#CFBBAF"/>
<path fill-rule="evenodd" clip-rule="evenodd" d="M18.6667 20.6667C17.5621 20.6667 16.6667 21.5621 16.6667 22.6667C16.6667 23.7712 17.5621 24.6667 18.6667 24.6667C19.7712 24.6667 20.6667 23.7712 20.6667 22.6667C20.6667 21.5621 19.7712 20.6667 18.6667 20.6667ZM15.3333 22.6667C15.3333 20.8257 16.8257 19.3333 18.6667 19.3333C20.5076 19.3333 22 20.8257 22 22.6667C22 24.5076 20.5076 26 18.6667 26C16.8257 26 15.3333 24.5076 15.3333 22.6667Z" fill="#35291B"/>
</svg>
