<svg width="32" height="32" viewBox="0 0 32 32" fill="none" xmlns="http://www.w3.org/2000/svg">
<path fill-rule="evenodd" clip-rule="evenodd" d="M6.99999 4.00002C6.99999 2.71136 8.04466 1.66669 9.33332 1.66669H16C17.2887 1.66669 18.3333 2.71136 18.3333 4.00002C18.3333 5.28868 17.2887 6.33335 16 6.33335H9.33332C8.04466 6.33335 6.99999 5.28868 6.99999 4.00002ZM9.33332 3.66669C9.14923 3.66669 8.99999 3.81593 8.99999 4.00002C8.99999 4.18412 9.14923 4.33335 9.33332 4.33335H16C16.1841 4.33335 16.3333 4.18412 16.3333 4.00002C16.3333 3.81593 16.1841 3.66669 16 3.66669H9.33332Z" fill="#35291B"/>
<path fill-rule="evenodd" clip-rule="evenodd" d="M1.66666 12C1.66666 10.7114 2.71133 9.66669 3.99999 9.66669H21.3333C22.622 9.66669 23.6667 10.7114 23.6667 12C23.6667 13.2887 22.622 14.3334 21.3333 14.3334H3.99999C2.71133 14.3334 1.66666 13.2887 1.66666 12ZM3.99999 11.6667C3.81589 11.6667 3.66666 11.8159 3.66666 12C3.66666 12.1841 3.8159 12.3334 3.99999 12.3334H21.3333C21.5174 12.3334 21.6667 12.1841 21.6667 12C21.6667 11.8159 21.5174 11.6667 21.3333 11.6667H3.99999Z" fill="#35291B"/>
<path fill-rule="evenodd" clip-rule="evenodd" d="M4.33332 8.00002C4.33332 5.97498 5.97495 4.33335 7.99999 4.33335H17.3333C19.3584 4.33335 21 5.97498 21 8.00002C21 10.0251 19.3584 11.6667 17.3333 11.6667H7.99999C5.97495 11.6667 4.33332 10.0251 4.33332 8.00002ZM7.99999 6.33335C7.07952 6.33335 6.33332 7.07955 6.33332 8.00002C6.33332 8.92049 7.07952 9.66669 7.99999 9.66669H17.3333C18.2538 9.66669 19 8.92049 19 8.00002C19 7.07955 18.2538 6.33335 17.3333 6.33335H7.99999Z" fill="#35291B"/>
<path fill-rule="evenodd" clip-rule="evenodd" d="M4.33332 16.4445C4.33332 14.174 6.17393 12.3334 8.44443 12.3334H16.8889C19.1594 12.3334 21 14.174 21 16.4445C21 20.4332 17.7665 23.6667 13.7778 23.6667H11.5555C7.56682 23.6667 4.33332 20.4332 4.33332 16.4445ZM8.44443 14.3334C7.2785 14.3334 6.33332 15.2785 6.33332 16.4445C6.33332 19.3286 8.67139 21.6667 11.5555 21.6667H13.7778C16.6619 21.6667 19 19.3286 19 16.4445C19 15.2785 18.0548 14.3334 16.8889 14.3334H8.44443Z" fill="#35291B"/>
<path fill-rule="evenodd" clip-rule="evenodd" d="M19.3333 16.6667C19.3333 16.2985 19.6318 16 20 16C21.8961 16 23.1514 16.3003 24.0512 16.818C24.961 17.3414 25.4294 18.0462 25.8108 18.6395C25.8216 18.6564 25.8324 18.6731 25.843 18.6897C26.2156 19.2696 26.4969 19.7075 27.0181 20.0442C27.5479 20.3866 28.4049 20.6667 30 20.6667C30.3682 20.6667 30.6667 20.9652 30.6667 21.3334C30.6667 21.7015 30.3682 22 30 22C28.2618 22 27.1188 21.6968 26.2944 21.1641C25.5246 20.6667 25.102 20.0058 24.7539 19.4615C24.732 19.4273 24.7105 19.3937 24.6892 19.3605C24.3206 18.7872 23.9973 18.3253 23.3863 17.9737C22.7653 17.6164 21.7706 17.3334 20 17.3334C19.6318 17.3334 19.3333 17.0349 19.3333 16.6667Z" fill="#35291B"/>
<path fill-rule="evenodd" clip-rule="evenodd" d="M19.3333 18.6667C19.3333 18.2985 19.6318 18 20 18C21.4332 18 22.3579 18.3157 23.0276 18.8897C23.3502 19.1662 23.5855 19.4794 23.781 19.779C23.8781 19.9278 23.9693 20.0796 24.0546 20.2219L24.0614 20.2331C24.1461 20.3745 24.2259 20.5075 24.3108 20.6395C24.6447 21.1589 25.039 21.6347 25.8158 22.0013C26.6189 22.3803 27.8838 22.6667 30 22.6667C30.3682 22.6667 30.6667 22.9652 30.6667 23.3334C30.6667 23.7015 30.3682 24 30 24C27.7828 24 26.2978 23.7031 25.2467 23.2071C24.1693 22.6987 23.6053 22.0078 23.1892 21.3605C23.0929 21.2107 23.0036 21.0618 22.9215 20.9249L22.9112 20.9077C22.8243 20.7629 22.7456 20.6321 22.6643 20.5075C22.503 20.2602 22.3477 20.063 22.1599 19.902C21.8087 19.601 21.2334 19.3334 20 19.3334C19.6318 19.3334 19.3333 19.0349 19.3333 18.6667Z" fill="#35291B"/>
<path fill-rule="evenodd" clip-rule="evenodd" d="M6.99999 25.3334C6.99999 23.3083 8.64161 21.6667 10.6667 21.6667H14.6667C16.6917 21.6667 18.3333 23.3083 18.3333 25.3334V26.6667C18.3333 28.6917 16.6917 30.3334 14.6667 30.3334H10.6667C8.64161 30.3334 6.99999 28.6917 6.99999 26.6667V25.3334ZM10.6667 23.6667C9.74618 23.6667 8.99999 24.4129 8.99999 25.3334V26.6667C8.99999 27.5872 9.74618 28.3334 10.6667 28.3334H14.6667C15.5871 28.3334 16.3333 27.5872 16.3333 26.6667V25.3334C16.3333 24.4129 15.5871 23.6667 14.6667 23.6667H10.6667Z" fill="#35291B"/>
</svg>
