<svg width="60" height="60" viewBox="0 0 60 60" fill="none" xmlns="http://www.w3.org/2000/svg">
<path fill-rule="evenodd" clip-rule="evenodd" d="M13.125 7.5C13.125 5.08375 15.0838 3.125 17.5 3.125H30C32.4162 3.125 34.375 5.08375 34.375 7.5C34.375 9.91625 32.4162 11.875 30 11.875H17.5C15.0838 11.875 13.125 9.91625 13.125 7.5ZM17.5 6.875C17.1548 6.875 16.875 7.15482 16.875 7.5C16.875 7.84518 17.1548 8.125 17.5 8.125H30C30.3452 8.125 30.625 7.84518 30.625 7.5C30.625 7.15482 30.3452 6.875 30 6.875H17.5Z" fill="#35291B"/>
<path fill-rule="evenodd" clip-rule="evenodd" d="M3.125 22.5C3.125 20.0838 5.08375 18.125 7.5 18.125H40C42.4162 18.125 44.375 20.0838 44.375 22.5C44.375 24.9162 42.4162 26.875 40 26.875H7.5C5.08375 26.875 3.125 24.9162 3.125 22.5ZM7.5 21.875C7.15482 21.875 6.875 22.1548 6.875 22.5C6.875 22.8452 7.15482 23.125 7.5 23.125H40C40.3452 23.125 40.625 22.8452 40.625 22.5C40.625 22.1548 40.3452 21.875 40 21.875H7.5Z" fill="#35291B"/>
<path fill-rule="evenodd" clip-rule="evenodd" d="M8.125 15C8.125 11.203 11.203 8.125 15 8.125H32.5C36.297 8.125 39.375 11.203 39.375 15C39.375 18.797 36.297 21.875 32.5 21.875H15C11.203 21.875 8.125 18.797 8.125 15ZM15 11.875C13.2741 11.875 11.875 13.2741 11.875 15C11.875 16.7259 13.2741 18.125 15 18.125H32.5C34.2259 18.125 35.625 16.7259 35.625 15C35.625 13.2741 34.2259 11.875 32.5 11.875H15Z" fill="#35291B"/>
<path fill-rule="evenodd" clip-rule="evenodd" d="M8.125 30.8333C8.125 26.5761 11.5761 23.125 15.8333 23.125H31.6667C35.9239 23.125 39.375 26.5761 39.375 30.8333C39.375 38.3122 33.3122 44.375 25.8333 44.375H21.6667C14.1878 44.375 8.125 38.3122 8.125 30.8333ZM15.8333 26.875C13.6472 26.875 11.875 28.6472 11.875 30.8333C11.875 36.2411 16.2589 40.625 21.6667 40.625H25.8333C31.2411 40.625 35.625 36.2411 35.625 30.8333C35.625 28.6472 33.8528 26.875 31.6667 26.875H15.8333Z" fill="#35291B"/>
<path fill-rule="evenodd" clip-rule="evenodd" d="M36.25 31.25C36.25 30.5596 36.8096 30 37.5 30C41.0551 30 43.4089 30.563 45.096 31.5337C46.8019 32.5152 47.6801 33.8366 48.3952 34.9491C48.4155 34.9806 48.4357 35.012 48.4557 35.0431C49.1542 36.1305 49.6817 36.9515 50.6589 37.5829C51.6523 38.2248 53.2592 38.75 56.25 38.75C56.9404 38.75 57.5 39.3096 57.5 40C57.5 40.6904 56.9404 41.25 56.25 41.25C52.9908 41.25 50.8477 40.6814 49.3021 39.6827C47.8587 38.7501 47.0662 37.5108 46.4135 36.4902C46.3726 36.4262 46.3322 36.3631 46.2923 36.3009C45.6012 35.2259 44.995 34.3598 43.8493 33.7007C42.6849 33.0307 40.8199 32.5 37.5 32.5C36.8096 32.5 36.25 31.9404 36.25 31.25Z" fill="#35291B"/>
<path fill-rule="evenodd" clip-rule="evenodd" d="M36.25 35C36.25 34.3096 36.8096 33.75 37.5 33.75C40.1873 33.75 41.9211 34.3418 43.1768 35.4181C43.7817 35.9366 44.2229 36.5238 44.5894 37.0856C44.7715 37.3647 44.9424 37.6492 45.1024 37.916L45.1151 37.9371C45.274 38.2021 45.4236 38.4515 45.5827 38.6991C46.2088 39.673 46.9481 40.5651 48.4046 41.2524C49.9104 41.963 52.2822 42.5 56.25 42.5C56.9404 42.5 57.5 43.0596 57.5 43.75C57.5 44.4404 56.9404 45 56.25 45C52.0928 45 49.3083 44.4433 47.3376 43.5133C45.3175 42.5599 44.2599 41.2645 43.4798 40.0509C43.2991 39.77 43.1317 39.4908 42.9778 39.2341L42.9585 39.2019C42.7956 38.9304 42.648 38.6852 42.4956 38.4515C42.1931 37.9879 41.9019 37.6181 41.5498 37.3163C40.8914 36.7519 39.8127 36.25 37.5 36.25C36.8096 36.25 36.25 35.6904 36.25 35Z" fill="#35291B"/>
<path fill-rule="evenodd" clip-rule="evenodd" d="M13.125 47.5C13.125 43.703 16.203 40.625 20 40.625H27.5C31.297 40.625 34.375 43.703 34.375 47.5V50C34.375 53.797 31.297 56.875 27.5 56.875H20C16.203 56.875 13.125 53.797 13.125 50V47.5ZM20 44.375C18.2741 44.375 16.875 45.7741 16.875 47.5V50C16.875 51.7259 18.2741 53.125 20 53.125H27.5C29.2259 53.125 30.625 51.7259 30.625 50V47.5C30.625 45.7741 29.2259 44.375 27.5 44.375H20Z" fill="#35291B"/>
</svg>
