<svg width="32" height="32" viewBox="0 0 32 32" fill="none" xmlns="http://www.w3.org/2000/svg">
<path fill-rule="evenodd" clip-rule="evenodd" d="M1.66666 10.6667C1.66666 7.16887 4.50219 4.33334 7.99999 4.33334H24C27.4978 4.33334 30.3333 7.16887 30.3333 10.6667V20C30.3333 23.4978 27.4978 26.3333 24 26.3333H7.99999C4.50219 26.3333 1.66666 23.4978 1.66666 20V10.6667ZM7.99999 6.33334C5.60676 6.33334 3.66666 8.27344 3.66666 10.6667V20C3.66666 22.3932 5.60676 24.3333 7.99999 24.3333H24C26.3932 24.3333 28.3333 22.3932 28.3333 20V10.6667C28.3333 8.27344 26.3932 6.33334 24 6.33334H7.99999Z" fill="#35291B"/>
<path fill-rule="evenodd" clip-rule="evenodd" d="M4.33332 14.6667C4.33332 11.1689 7.16885 8.33334 10.6667 8.33334H13.3333C16.8311 8.33334 19.6667 11.1689 19.6667 14.6667V16C19.6667 19.4978 16.8311 22.3333 13.3333 22.3333H10.6667C7.16885 22.3333 4.33332 19.4978 4.33332 16V14.6667ZM10.6667 10.3333C8.27342 10.3333 6.33332 12.2734 6.33332 14.6667V16C6.33332 18.3932 8.27342 20.3333 10.6667 20.3333H13.3333C15.7266 20.3333 17.6667 18.3932 17.6667 16V14.6667C17.6667 12.2734 15.7266 10.3333 13.3333 10.3333H10.6667Z" fill="#35291B"/>
<path fill-rule="evenodd" clip-rule="evenodd" d="M26 11.6667C26.1841 11.6667 26.3333 11.5174 26.3333 11.3333C26.3333 11.1492 26.1841 11 26 11C25.8159 11 25.6667 11.1492 25.6667 11.3333C25.6667 11.5174 25.8159 11.6667 26 11.6667ZM24.3333 11.3333C24.3333 10.4129 25.0795 9.66668 26 9.66668C26.9205 9.66668 27.6667 10.4129 27.6667 11.3333C27.6667 12.2538 26.9205 13 26 13C25.0795 13 24.3333 12.2538 24.3333 11.3333Z" fill="#35291B"/>
<path fill-rule="evenodd" clip-rule="evenodd" d="M26 15.6667C26.1841 15.6667 26.3333 15.5174 26.3333 15.3333C26.3333 15.1492 26.1841 15 26 15C25.8159 15 25.6667 15.1492 25.6667 15.3333C25.6667 15.5174 25.8159 15.6667 26 15.6667ZM24.3333 15.3333C24.3333 14.4129 25.0795 13.6667 26 13.6667C26.9205 13.6667 27.6667 14.4129 27.6667 15.3333C27.6667 16.2538 26.9205 17 26 17C25.0795 17 24.3333 16.2538 24.3333 15.3333Z" fill="#35291B"/>
<path fill-rule="evenodd" clip-rule="evenodd" d="M22.3333 9.33334C22.8856 9.33334 23.3333 9.78106 23.3333 10.3333V20.3333C23.3333 20.8856 22.8856 21.3333 22.3333 21.3333C21.781 21.3333 21.3333 20.8856 21.3333 20.3333V10.3333C21.3333 9.78106 21.781 9.33334 22.3333 9.33334Z" fill="#35291B"/>
</svg>
