<svg width="60" height="60" viewBox="0 0 60 60" fill="none" xmlns="http://www.w3.org/2000/svg">
<path fill-rule="evenodd" clip-rule="evenodd" d="M3.125 20C3.125 13.4416 8.44162 8.125 15 8.125H45C51.5584 8.125 56.875 13.4416 56.875 20V37.5C56.875 44.0584 51.5584 49.375 45 49.375H15C8.44162 49.375 3.125 44.0584 3.125 37.5V20ZM15 11.875C10.5127 11.875 6.875 15.5127 6.875 20V37.5C6.875 41.9873 10.5127 45.625 15 45.625H45C49.4873 45.625 53.125 41.9873 53.125 37.5V20C53.125 15.5127 49.4873 11.875 45 11.875H15Z" fill="#35291B"/>
<path fill-rule="evenodd" clip-rule="evenodd" d="M8.125 27.5C8.125 20.9416 13.4416 15.625 20 15.625H25C31.5584 15.625 36.875 20.9416 36.875 27.5V30C36.875 36.5584 31.5584 41.875 25 41.875H20C13.4416 41.875 8.125 36.5584 8.125 30V27.5ZM20 19.375C15.5127 19.375 11.875 23.0127 11.875 27.5V30C11.875 34.4873 15.5127 38.125 20 38.125H25C29.4873 38.125 33.125 34.4873 33.125 30V27.5C33.125 23.0127 29.4873 19.375 25 19.375H20Z" fill="#35291B"/>
<path fill-rule="evenodd" clip-rule="evenodd" d="M48.75 21.875C49.0952 21.875 49.375 21.5952 49.375 21.25C49.375 20.9048 49.0952 20.625 48.75 20.625C48.4048 20.625 48.125 20.9048 48.125 21.25C48.125 21.5952 48.4048 21.875 48.75 21.875ZM45.625 21.25C45.625 19.5241 47.0241 18.125 48.75 18.125C50.4759 18.125 51.875 19.5241 51.875 21.25C51.875 22.9759 50.4759 24.375 48.75 24.375C47.0241 24.375 45.625 22.9759 45.625 21.25Z" fill="#35291B"/>
<path fill-rule="evenodd" clip-rule="evenodd" d="M48.75 29.375C49.0952 29.375 49.375 29.0952 49.375 28.75C49.375 28.4048 49.0952 28.125 48.75 28.125C48.4048 28.125 48.125 28.4048 48.125 28.75C48.125 29.0952 48.4048 29.375 48.75 29.375ZM45.625 28.75C45.625 27.0241 47.0241 25.625 48.75 25.625C50.4759 25.625 51.875 27.0241 51.875 28.75C51.875 30.4759 50.4759 31.875 48.75 31.875C47.0241 31.875 45.625 30.4759 45.625 28.75Z" fill="#35291B"/>
<path fill-rule="evenodd" clip-rule="evenodd" d="M41.875 17.5C42.9105 17.5 43.75 18.3395 43.75 19.375V38.125C43.75 39.1605 42.9105 40 41.875 40C40.8395 40 40 39.1605 40 38.125V19.375C40 18.3395 40.8395 17.5 41.875 17.5Z" fill="#35291B"/>
</svg>
