<svg width="32" height="32" viewBox="0 0 32 32" fill="none" xmlns="http://www.w3.org/2000/svg">
<path d="M15.4166 2.66666L15.4166 21.3333M25.3333 22.0833H5.33331M10.3333 29.3333H20.3333C23.0947 29.3333 25.3333 27.0948 25.3333 24.3333V7.66666C25.3333 4.90523 23.0947 2.66666 20.3333 2.66666H10.3333C7.57189 2.66666 5.33331 4.90523 5.33331 7.66665V24.3333C5.33331 27.0947 7.57189 29.3333 10.3333 29.3333ZM8.99998 14.6667H11C11.5523 14.6667 12 14.2189 12 13.6667V11.6667C12 11.1144 11.5523 10.6667 11 10.6667H8.99998C8.44769 10.6667 7.99998 11.1144 7.99998 11.6667V13.6667C7.99998 14.2189 8.44769 14.6667 8.99998 14.6667Z" stroke="#35291B" stroke-width="1.5"/>
</svg>
