<svg width="32" height="32" viewBox="0 0 32 32" fill="none" xmlns="http://www.w3.org/2000/svg">
<path fill-rule="evenodd" clip-rule="evenodd" d="M15.4166 2.66669L10.3333 2.66669C7.57189 2.66669 5.33331 4.90526 5.33331 7.66668V22.0834H25.3333V7.66669C25.3333 4.90526 23.0947 2.66669 20.3333 2.66669L15.4166 2.66669ZM11 10.6667H8.99998C8.44769 10.6667 7.99998 11.1144 7.99998 11.6667V13.6667C7.99998 14.219 8.44769 14.6667 8.99998 14.6667H11C11.5523 14.6667 12 14.219 12 13.6667V11.6667C12 11.1144 11.5523 10.6667 11 10.6667Z" fill="#CFBBAF"/>
<path d="M25.3333 24.3334V22.0834H5.33331V24.3334C5.33331 27.0948 7.57189 29.3334 10.3333 29.3334H20.3333C23.0947 29.3334 25.3333 27.0948 25.3333 24.3334Z" fill="#CFBBAF"/>
<path d="M8.99998 10.6667H11C11.5523 10.6667 12 11.1144 12 11.6667V13.6667C12 14.219 11.5523 14.6667 11 14.6667H8.99998C8.44769 14.6667 7.99998 14.219 7.99998 13.6667V11.6667C7.99998 11.1144 8.44769 10.6667 8.99998 10.6667Z" fill="#CFBBAF"/>
<path d="M15.4166 2.66669L15.4166 1.91669L15.4166 2.66669ZM10.3333 3.41669H20.3333V1.91669H10.3333V3.41669ZM24.5833 7.66669V24.3334H26.0833V7.66669H24.5833ZM20.3333 28.5834H10.3333V30.0834H20.3333V28.5834ZM6.08331 24.3334V7.66668H4.58331V24.3334H6.08331ZM10.3333 28.5834C7.9861 28.5834 6.08331 26.6806 6.08331 24.3334H4.58331C4.58331 27.509 7.15768 30.0834 10.3333 30.0834V28.5834ZM24.5833 24.3334C24.5833 26.6806 22.6805 28.5834 20.3333 28.5834V30.0834C23.5089 30.0834 26.0833 27.509 26.0833 24.3334H24.5833ZM20.3333 3.41669C22.6805 3.41669 24.5833 5.31948 24.5833 7.66669H26.0833C26.0833 4.49105 23.509 1.91669 20.3333 1.91669V3.41669ZM10.3333 1.91669C7.15768 1.91669 4.58331 4.49105 4.58331 7.66668H6.08331C6.08331 5.31947 7.9861 3.41669 10.3333 3.41669V1.91669ZM14.6666 2.66669L14.6666 21.3334L16.1666 21.3334L16.1666 2.66669L14.6666 2.66669ZM25.3333 21.3334H5.33331V22.8334H25.3333V21.3334ZM8.99998 11.4167H11V9.91669H8.99998V11.4167ZM11.25 11.6667V13.6667H12.75V11.6667H11.25ZM11 13.9167H8.99998V15.4167H11V13.9167ZM8.74998 13.6667V11.6667H7.24998V13.6667H8.74998ZM8.99998 13.9167C8.86191 13.9167 8.74998 13.8048 8.74998 13.6667H7.24998C7.24998 14.6332 8.03348 15.4167 8.99998 15.4167V13.9167ZM11.25 13.6667C11.25 13.8048 11.1381 13.9167 11 13.9167V15.4167C11.9665 15.4167 12.75 14.6332 12.75 13.6667H11.25ZM11 11.4167C11.1381 11.4167 11.25 11.5286 11.25 11.6667H12.75C12.75 10.7002 11.9665 9.91669 11 9.91669V11.4167ZM8.99998 9.91669C8.03348 9.91669 7.24998 10.7002 7.24998 11.6667H8.74998C8.74998 11.5286 8.86191 11.4167 8.99998 11.4167V9.91669ZM15.4166 1.91669L10.3333 1.91669L10.3333 3.41669L15.4166 3.41669L15.4166 1.91669ZM4.58331 7.66668V22.0834H6.08331V7.66668H4.58331ZM26.0833 22.0834V7.66669H24.5833V22.0834H26.0833ZM20.3333 1.91669L15.4166 1.91669L15.4166 3.41669L20.3333 3.41669L20.3333 1.91669ZM26.0833 24.3334V22.0834H24.5833V24.3334H26.0833ZM4.58331 22.0834V24.3334H6.08331V22.0834H4.58331Z" fill="#35291B"/>
</svg>
