<svg width="32" height="32" viewBox="0 0 32 32" fill="none" xmlns="http://www.w3.org/2000/svg">
<path fill-rule="evenodd" clip-rule="evenodd" d="M21 7H11C7.68629 7 5 9.68629 5 13V21C5 24.3137 7.68629 27 11 27H21C24.3137 27 27 24.3137 27 21V13C27 9.68629 24.3137 7 21 7ZM11 5C6.58172 5 3 8.58172 3 13V21C3 25.4183 6.58172 29 11 29H21C25.4183 29 29 25.4183 29 21V13C29 8.58172 25.4183 5 21 5H11Z" fill="#35291B"/>
<path fill-rule="evenodd" clip-rule="evenodd" d="M15 27V6H17V27H15Z" fill="#35291B"/>
<path fill-rule="evenodd" clip-rule="evenodd" d="M4 16L28 16V18L4 18L4 16Z" fill="#35291B"/>
</svg>
