<svg width="60" height="60" viewBox="0 0 60 60" fill="none" xmlns="http://www.w3.org/2000/svg">
<path fill-rule="evenodd" clip-rule="evenodd" d="M39.375 13.125H20.625C14.4118 13.125 9.375 18.1618 9.375 24.375V39.375C9.375 45.5882 14.4118 50.625 20.625 50.625H39.375C45.5882 50.625 50.625 45.5882 50.625 39.375V24.375C50.625 18.1618 45.5882 13.125 39.375 13.125ZM20.625 9.375C12.3407 9.375 5.625 16.0907 5.625 24.375V39.375C5.625 47.6593 12.3407 54.375 20.625 54.375H39.375C47.6593 54.375 54.375 47.6593 54.375 39.375V24.375C54.375 16.0907 47.6593 9.375 39.375 9.375H20.625Z" fill="#35291B"/>
<path fill-rule="evenodd" clip-rule="evenodd" d="M28.125 50.625V11.25H31.875V50.625H28.125Z" fill="#35291B"/>
<path fill-rule="evenodd" clip-rule="evenodd" d="M7.5 30L52.5 30V33.75L7.5 33.75L7.5 30Z" fill="#35291B"/>
</svg>
