<svg width="50" height="50" viewBox="0 0 50 50" fill="none" xmlns="http://www.w3.org/2000/svg">
<path fill-rule="evenodd" clip-rule="evenodd" d="M14 7.25C10.8244 7.25 8.25 9.82436 8.25 13V33C8.25 36.1756 10.8244 38.75 14 38.75H17C17.4142 38.75 17.75 38.4142 17.75 38V27.5C17.75 27.3533 17.7574 27.2083 17.7719 27.0655C17.844 26.3564 18.0903 25.6988 18.4674 25.1363C19.2064 24.0341 20.4475 23.2969 21.8634 23.2522C21.9087 23.2507 21.9543 23.25 22 23.25H31.5C31.9142 23.25 32.25 22.9142 32.25 22.5V13C32.25 9.82436 29.6756 7.25 26.5 7.25H14ZM9.75 13V29H16.25V27.5C16.25 25.0277 17.8104 22.9198 20 22.1074V8.75H14C11.6528 8.75 9.75 10.6528 9.75 13ZM21.5 8.75V21.7714C21.6162 21.7614 21.7335 21.7549 21.8516 21.7519C21.9009 21.7506 21.9504 21.75 22 21.75H30.75V13C30.75 10.6528 28.8472 8.75 26.5 8.75H21.5ZM16.25 30.5H9.75V33C9.75 35.3472 11.6528 37.25 14 37.25H16.25V30.5Z" fill="#140A01"/>
<path fill-rule="evenodd" clip-rule="evenodd" d="M13 16.25C12.0335 16.25 11.25 17.0335 11.25 18V20.5C11.25 21.4665 12.0335 22.25 13 22.25H15.5C16.4665 22.25 17.25 21.4665 17.25 20.5V18C17.25 17.0335 16.4665 16.25 15.5 16.25H13ZM13 17.75C12.8619 17.75 12.75 17.8619 12.75 18V20.5C12.75 20.6381 12.8619 20.75 13 20.75H15.5C15.6381 20.75 15.75 20.6381 15.75 20.5V18C15.75 17.8619 15.6381 17.75 15.5 17.75H13Z" fill="#140A01"/>
<path d="M21.5 21.7714V8.75H26.5C28.8472 8.75 30.75 10.6528 30.75 13V21.75H22C21.9504 21.75 21.9009 21.7506 21.8516 21.7519C21.7335 21.7549 21.6162 21.7614 21.5 21.7714Z" fill="url(#paint0_linear_521_210)"/>
<path fill-rule="evenodd" clip-rule="evenodd" d="M9.75 29V13C9.75 10.6528 11.6528 8.75 14 8.75H20V22.1074C17.8104 22.9198 16.25 25.0277 16.25 27.5V29H9.75ZM11.25 18C11.25 17.0335 12.0335 16.25 13 16.25H15.5C16.4665 16.25 17.25 17.0335 17.25 18V20.5C17.25 21.4665 16.4665 22.25 15.5 22.25H13C12.0335 22.25 11.25 21.4665 11.25 20.5V18Z" fill="url(#paint1_linear_521_210)"/>
<path d="M9.75 30.5H16.25V37.25H14C11.6528 37.25 9.75 35.3472 9.75 33V30.5Z" fill="url(#paint2_linear_521_210)"/>
<path fill-rule="evenodd" clip-rule="evenodd" d="M26 28C23.3766 28 21.25 30.1266 21.25 32.75V36C21.25 38.6234 23.3766 40.75 26 40.75H30.5C33.1234 40.75 35.25 38.6234 35.25 36V32.75C35.25 30.1266 33.1234 28 30.5 28H26ZM26 29.5C24.2051 29.5 22.75 30.9551 22.75 32.75V36C22.75 37.7949 24.2051 39.25 26 39.25H30.5C32.2949 39.25 33.75 37.7949 33.75 36V32.75C33.75 30.9551 32.2949 29.5 30.5 29.5H26Z" fill="#140A01"/>
<path fill-rule="evenodd" clip-rule="evenodd" d="M23.5 24.25C20.8766 24.25 18.75 26.3766 18.75 29V39.75C18.75 42.3734 20.8766 44.5 23.5 44.5H40.5C43.1234 44.5 45.25 42.3734 45.25 39.75V29C45.25 26.3766 43.1234 24.25 40.5 24.25H23.5ZM23.5 25.75C21.7051 25.75 20.25 27.2051 20.25 29V39.75C20.25 41.5449 21.7051 43 23.5 43H40.5C42.2949 43 43.75 41.5449 43.75 39.75V29C43.75 27.2051 42.2949 25.75 40.5 25.75H23.5Z" fill="#140A01"/>
<path d="M38.5 29.5C38.5 29.0858 38.1642 28.75 37.75 28.75C37.3358 28.75 37 29.0858 37 29.5V39.25C37 39.6642 37.3358 40 37.75 40C38.1642 40 38.5 39.6642 38.5 39.25V29.5Z" fill="#140A01"/>
<path fill-rule="evenodd" clip-rule="evenodd" d="M41.375 29.25C40.6156 29.25 40 29.8656 40 30.625C40 31.3844 40.6156 32 41.375 32C42.1344 32 42.75 31.3844 42.75 30.625C42.75 29.8656 42.1344 29.25 41.375 29.25ZM41.375 30.75C41.444 30.75 41.5 30.694 41.5 30.625C41.5 30.556 41.444 30.5 41.375 30.5C41.306 30.5 41.25 30.556 41.25 30.625C41.25 30.694 41.306 30.75 41.375 30.75Z" fill="#140A01"/>
<path fill-rule="evenodd" clip-rule="evenodd" d="M41.375 33C40.6156 33 40 33.6156 40 34.375C40 35.1344 40.6156 35.75 41.375 35.75C42.1344 35.75 42.75 35.1344 42.75 34.375C42.75 33.6156 42.1344 33 41.375 33ZM41.375 34.5C41.444 34.5 41.5 34.444 41.5 34.375C41.5 34.306 41.444 34.25 41.375 34.25C41.306 34.25 41.25 34.306 41.25 34.375C41.25 34.444 41.306 34.5 41.375 34.5Z" fill="#140A01"/>
<path fill-rule="evenodd" clip-rule="evenodd" d="M20.25 29C20.25 27.2051 21.7051 25.75 23.5 25.75H40.5C42.2949 25.75 43.75 27.2051 43.75 29V39.75C43.75 41.5449 42.2949 43 40.5 43H23.5C21.7051 43 20.25 41.5449 20.25 39.75V29ZM21.25 32.75C21.25 30.1266 23.3766 28 26 28H30.5C33.1234 28 35.25 30.1266 35.25 32.75V36C35.25 38.6234 33.1234 40.75 30.5 40.75H26C23.3766 40.75 21.25 38.6234 21.25 36V32.75ZM37.75 28.75C38.1642 28.75 38.5 29.0858 38.5 29.5V39.25C38.5 39.6642 38.1642 40 37.75 40C37.3358 40 37 39.6642 37 39.25V29.5C37 29.0858 37.3358 28.75 37.75 28.75ZM40 30.625C40 29.8656 40.6156 29.25 41.375 29.25C42.1344 29.25 42.75 29.8656 42.75 30.625C42.75 31.3844 42.1344 32 41.375 32C40.6156 32 40 31.3844 40 30.625ZM40 34.375C40 33.6156 40.6156 33 41.375 33C42.1344 33 42.75 33.6156 42.75 34.375C42.75 35.1344 42.1344 35.75 41.375 35.75C40.6156 35.75 40 35.1344 40 34.375Z" fill="url(#paint3_linear_521_210)"/>
<defs>
<linearGradient id="paint0_linear_521_210" x1="8.25" y1="38.75" x2="38.73" y2="15.89" gradientUnits="userSpaceOnUse">
<stop stop-color="#B5E48C"/>
<stop offset="1" stop-color="#FFD364"/>
</linearGradient>
<linearGradient id="paint1_linear_521_210" x1="8.25" y1="38.75" x2="38.73" y2="15.89" gradientUnits="userSpaceOnUse">
<stop stop-color="#B5E48C"/>
<stop offset="1" stop-color="#FFD364"/>
</linearGradient>
<linearGradient id="paint2_linear_521_210" x1="8.25" y1="38.75" x2="38.73" y2="15.89" gradientUnits="userSpaceOnUse">
<stop stop-color="#B5E48C"/>
<stop offset="1" stop-color="#FFD364"/>
</linearGradient>
<linearGradient id="paint3_linear_521_210" x1="18.75" y1="44.5" x2="36.25" y2="18.25" gradientUnits="userSpaceOnUse">
<stop stop-color="#B5E48C"/>
<stop offset="1" stop-color="#FFD364"/>
</linearGradient>
</defs>
</svg>
