<svg width="32" height="32" viewBox="0 0 32 32" fill="none" xmlns="http://www.w3.org/2000/svg">
<path d="M4 8.62679C3.58579 8.62679 3.25 8.96258 3.25 9.37679C3.25 9.79101 3.58579 10.1268 4 10.1268V8.62679ZM28 10.1268C28.4142 10.1268 28.75 9.79101 28.75 9.37679C28.75 8.96258 28.4142 8.62679 28 8.62679V10.1268ZM6.66667 9.37679V8.62679H5.91667V9.37679H6.66667ZM25.3333 9.37679H26.0833V8.62679H25.3333V9.37679ZM24.4558 22.4404L25.1763 22.6484L24.4558 22.4404ZM18.2986 27.8071L18.4236 28.5466H18.4236L18.2986 27.8071ZM13.7013 27.8071L13.8263 27.0676L13.8263 27.0676L13.7013 27.8071ZM13.491 27.7716L13.3661 28.5111L13.3661 28.5111L13.491 27.7716ZM7.5442 22.4404L6.82362 22.6484L7.5442 22.4404ZM18.509 27.7716L18.384 27.0321L18.509 27.7716ZM10.4567 7.31918L11.1375 7.63386L10.4567 7.31918ZM11.7574 5.57483L11.2568 5.01628L11.2568 5.01628L11.7574 5.57483ZM13.7039 4.40928L13.9649 5.11241L13.7039 4.40928ZM18.2961 4.40928L18.5571 3.70616L18.5571 3.70616L18.2961 4.40928ZM21.5433 7.31918L22.2241 7.00451V7.00451L21.5433 7.31918ZM4 10.1268H28V8.62679H4V10.1268ZM18.384 27.0321L18.1736 27.0676L18.4236 28.5466L18.6339 28.5111L18.384 27.0321ZM13.8263 27.0676L13.616 27.0321L13.3661 28.5111L13.5764 28.5466L13.8263 27.0676ZM24.5833 9.37679V16.2344H26.0833V9.37679H24.5833ZM7.41667 16.2345V9.37679H5.91667V16.2345H7.41667ZM24.5833 16.2344C24.5833 18.2642 24.2978 20.2836 23.7352 22.2324L25.1763 22.6484C25.778 20.5643 26.0833 18.4048 26.0833 16.2344H24.5833ZM18.1736 27.0676C16.7346 27.3108 15.2654 27.3108 13.8263 27.0676L13.5764 28.5466C15.1809 28.8178 16.819 28.8178 18.4236 28.5466L18.1736 27.0676ZM13.616 27.0321C11.0697 26.6018 8.9883 24.7387 8.26478 22.2324L6.82362 22.6484C7.7055 25.7033 10.2461 27.9839 13.3661 28.5111L13.616 27.0321ZM8.26478 22.2324C7.70223 20.2836 7.41667 18.2642 7.41667 16.2345H5.91667C5.91667 18.4049 6.22201 20.5643 6.82362 22.6484L8.26478 22.2324ZM18.6339 28.5111C21.7538 27.9839 24.2945 25.7033 25.1763 22.6484L23.7352 22.2324C23.0117 24.7387 20.9303 26.6018 18.384 27.0321L18.6339 28.5111ZM10.75 9.37679C10.75 8.78135 10.8807 8.18937 11.1375 7.63386L9.77593 7.0045C9.42965 7.75368 9.25 8.56006 9.25 9.37679H10.75ZM11.1375 7.63386C11.3944 7.07804 11.7736 6.56734 12.2579 6.13337L11.2568 5.01628C10.6268 5.58087 10.1221 6.25564 9.77593 7.0045L11.1375 7.63386ZM12.2579 6.13337C12.7423 5.69926 13.3217 5.35114 13.9649 5.11241L13.4429 3.70616C12.6301 4.00785 11.8867 4.45183 11.2568 5.01628L12.2579 6.13337ZM13.9649 5.11241C14.6081 4.87366 15.2998 4.75 16 4.75V3.25C15.1243 3.25 14.2556 3.40449 13.4429 3.70616L13.9649 5.11241ZM16 4.75C16.7002 4.75 17.3919 4.87366 18.0351 5.11241L18.5571 3.70616C17.7444 3.40449 16.8757 3.25 16 3.25V4.75ZM18.0351 5.11241C18.6783 5.35114 19.2577 5.69926 19.7421 6.13337L20.7432 5.01628C20.1133 4.45183 19.3699 4.00785 18.5571 3.70616L18.0351 5.11241ZM19.7421 6.13337C20.2264 6.56734 20.6056 7.07804 20.8625 7.63386L22.2241 7.00451C21.8779 6.25564 21.3732 5.58087 20.7432 5.01628L19.7421 6.13337ZM20.8625 7.63386C21.1193 8.18937 21.25 8.78135 21.25 9.37679H22.75C22.75 8.56006 22.5704 7.75368 22.2241 7.00451L20.8625 7.63386ZM6.66667 10.1268H25.3333V8.62679H6.66667V10.1268Z" fill="#140A01"/>
<path d="M14.0833 16C14.0833 15.5858 13.7475 15.25 13.3333 15.25C12.9191 15.25 12.5833 15.5858 12.5833 16H14.0833ZM12.5833 21.3333C12.5833 21.7475 12.9191 22.0833 13.3333 22.0833C13.7475 22.0833 14.0833 21.7475 14.0833 21.3333H12.5833ZM19.4167 16C19.4167 15.5858 19.0809 15.25 18.6667 15.25C18.2524 15.25 17.9167 15.5858 17.9167 16H19.4167ZM17.9167 21.3333C17.9167 21.7475 18.2524 22.0833 18.6667 22.0833C19.0809 22.0833 19.4167 21.7475 19.4167 21.3333H17.9167ZM12.5833 16V21.3333H14.0833V16H12.5833ZM17.9167 16V21.3333H19.4167V16H17.9167Z" fill="#140A01"/>
</svg>
